<?xml version="1.0" standalone="no"?>
<!DOCTYPE svg PUBLIC "-//W3C//DTD SVG 20010904//EN"
 "http://www.w3.org/TR/2001/REC-SVG-20010904/DTD/svg10.dtd">
<svg version="1.0" xmlns="http://www.w3.org/2000/svg"
 width="122.000000pt" height="122.000000pt" viewBox="70 0 122.000000 122.000000"
 preserveAspectRatio="xMidYMid meet">
<metadata>
Created by potrace 1.15, written by Peter Selinger 2001-2017
</metadata>
<g transform="translate(0.000000,122.000000) scale(0.100000,-0.100000)"
fill="#FFFFFF" stroke="none">
<path d="M1087 1010 c-30 -38 -63 -90 -73 -116 -16 -43 -17 -51 -3 -105 15
-56 15 -59 -2 -59 -10 0 -20 -4 -23 -9 -3 -4 20 -11 51 -14 72 -8 138 -48 181
-111 38 -57 38 -60 11 -87 -18 -18 -28 -20 -66 -14 -51 7 -83 -12 -83 -50 0
-75 148 -84 195 -12 35 53 29 103 -23 199 -1 3 14 12 35 18 82 27 110 81 120
234 3 61 2 106 -3 106 -5 -1 -36 -22 -68 -49 l-59 -47 -42 15 c-41 15 -43 17
-49 68 -6 53 -24 103 -36 103 -4 0 -32 -31 -63 -70z"/>
<path d="M830 702 c-43 -21 -70 -72 -69 -132 0 -33 2 -40 8 -25 5 11 20 32 34
48 23 24 33 27 91 27 55 0 67 3 76 20 34 63 -58 104 -140 62z"/>
<path d="M745 484 c-25 -54 -6 -125 50 -181 54 -55 72 -56 45 -3 -23 44 -26
98 -8 146 10 29 9 36 -7 54 -29 32 -60 26 -80 -16z"/>
<path d="M890 452 c-30 -24 -37 -90 -16 -146 31 -81 97 -118 209 -117 83 1
130 21 197 86 48 46 68 54 112 42 21 -5 30 -17 39 -47 10 -32 17 -40 35 -40
25 0 49 28 59 70 13 57 -61 130 -132 130 -44 0 -120 -37 -141 -67 -65 -95
-131 -143 -196 -143 -30 0 -40 6 -57 33 -17 27 -19 42 -14 102 4 55 2 75 -10
93 -19 26 -55 29 -85 4z"/>
</g>
</svg>
